<svg version="1.2" xmlns="http://www.w3.org/2000/svg" viewBox="0 0 20 20" width="20" height="20"><style>.a{fill:#9b9b9b}</style><path fill-rule="evenodd" class="a" d="m17.9 13.9v-7.8c0-2.1-1.7-3.8-3.8-3.8h-8c-2.2 0-3.9 1.7-3.9 3.8v7.8c0 2.1 1.7 3.8 3.9 3.8h8c2.1 0 3.8-1.7 3.8-3.8zm-3.8-13.6c3.2 0 5.8 2.6 5.8 5.8v7.8c0 3.2-2.6 5.8-5.8 5.8h-8c-3.3 0-5.9-2.6-5.9-5.8v-7.8c0-3.2 2.6-5.8 5.9-5.8zm-4 12.8c1.7 0 3.1-1.4 3.1-3.1 0-1.7-1.4-3.1-3.1-3.1-1.7 0-3.1 1.4-3.1 3.1 0 1.7 1.4 3.1 3.1 3.1zm0-8.1c2.8 0 5.1 2.2 5.1 5 0 2.8-2.3 5-5.1 5-2.8 0-5.1-2.2-5.1-5 0-2.8 2.3-5 5.1-5zm6.3 0c0 0.7-0.5 1.2-1.2 1.2-0.7 0-1.2-0.5-1.2-1.2 0-0.6 0.5-1.2 1.2-1.2 0.7 0 1.2 0.6 1.2 1.2z"/></svg>