<svg version="1.2" xmlns="http://www.w3.org/2000/svg" viewBox="0 0 25 20" width="25" height="20"><style>.a{fill:#9b9b9b}</style><path class="a" d="m24.6 2.3q-0.8 0.4-1.7 0.6c0.7-0.6 1.1-1.4 1.4-2.2 0.1-0.2-0.2-0.4-0.4-0.3q-1.2 0.7-2.6 1-0.1 0.1-0.1 0.1-0.3 0-0.5-0.2c-1-0.8-2.2-1.3-3.5-1.3q-0.9 0-1.7 0.3c-1.7 0.5-3.1 1.9-3.5 3.6q-0.2 0.9-0.1 1.9 0 0.1-0.1 0.1 0 0.1-0.1 0.1 0 0 0 0c-3.8-0.4-7.2-2.1-9.6-5-0.1-0.1-0.4-0.1-0.5 0-0.4 0.8-0.7 1.7-0.7 2.6 0 1.4 0.6 2.8 1.6 3.7q-0.6-0.1-1.2-0.4c-0.2-0.1-0.4 0-0.4 0.2 0 2.1 1.2 4 3.1 4.8q-0.1 0-0.1 0-0.5 0-0.9-0.1c-0.2 0-0.4 0.2-0.3 0.4 0.6 1.8 2.2 3.2 4.2 3.5-1.7 1.1-3.6 1.6-5.5 1.6h-0.6c-0.2 0-0.4 0.1-0.4 0.3-0.1 0.2 0 0.4 0.2 0.5 2.2 1.2 4.7 1.9 7.3 1.9q3.4 0 6.3-1.3 2.6-1.2 4.6-3.3 1.8-2.1 2.8-4.6c0.6-1.7 0.9-3.4 0.9-5v-0.1c0-0.3 0.1-0.5 0.4-0.7q1.2-1 2.1-2.3c0.1-0.2-0.1-0.5-0.4-0.4z"/></svg>